# xmcd
#
# Track frame offsets:
#	150
#	12476
#	24014
#	45015
#	63089
#	79309
#	100007
#	114453
#
# Disc length: 1795 seconds
#
# Revision: 1
# Processed by: cddbd v1.5.2PL0 Copyright (c) Steve Scherf et al.
# Submitted via: audiograbber 1.83.01
#
DISCID=4c070108
DTITLE=Hopetoun Brown - Burning Fuse
DYEAR=2015
DGENRE=
TTITLE0=Burning Fuse
TTITLE1=Sorry You're Sick
TTITLE2=Road Runner Rocks 
TTITLE3=Knitted Into My Bones
TTITLE4=Blind
TTITLE5=The Melter
TTITLE6=The Demanding Blues
TTITLE7=Dirty Shame
EXTD=
EXTT0=
EXTT1=
EXTT2=
EXTT3=
EXTT4=
EXTT5=
EXTT6=
EXTT7=
PLAYORDER=
